<svg width="22" height="22" fill="none" xmlns="http://www.w3.org/2000/svg"><path d="M19.158 3.933A4.593 4.593 0 0014.85.916h-7.7a4.593 4.593 0 00-4.308 3.017L.367 10.74A6.109 6.109 0 000 12.833v.916a4.564 4.564 0 001.833 3.647v1.853a2.75 2.75 0 005.5 0v-.916h7.334v.916a2.75 2.75 0 105.5 0v-1.853A4.565 4.565 0 0022 13.749v-.916a6.098 6.098 0 00-.367-2.091l-2.475-6.81zM4.567 4.56A2.758 2.758 0 017.15 2.75h7.7a2.758 2.758 0 012.585 1.81l2.006 5.523H2.558L4.567 4.56zM5.5 19.25a.916.916 0 01-1.833 0v-1.01c.301.061.608.092.916.092H5.5v.916zm12.833 0a.916.916 0 11-1.833 0v-.917h.917c.307 0 .615-.03.916-.092v1.008zm1.834-5.5a2.75 2.75 0 01-2.75 2.75H4.583a2.75 2.75 0 01-2.75-2.75v-.917a4.27 4.27 0 01.111-.917h1.723v.917a.917.917 0 001.833 0v-.917h11v.917a.917.917 0 001.833 0v-.917h1.723c.07.3.107.608.11.917v.916z" fill="#060A1F"/></svg>