<svg width="18" height="18" fill="none" xmlns="http://www.w3.org/2000/svg"><path d="M17.32 12.576a2.329 2.329 0 010 3.289l-.685.789C10.482 22.542-4.489 7.574 1.31 1.404l.863-.752a2.317 2.317 0 013.252.029A431.05 431.05 0 016.84 2.513a2.329 2.329 0 01-.005 3.216l-.87 1.095a9.602 9.602 0 005.206 5.217l1.1-.875a2.329 2.329 0 013.216-.005s1.81 1.393 1.833 1.415zm-1.033 1.092s-1.797-1.383-1.82-1.406a.826.826 0 00-1.164 0c-.02.02-1.536 1.227-1.536 1.227a.75.75 0 01-.735.115 11.267 11.267 0 01-6.63-6.62.751.751 0 01.11-.748s1.207-1.515 1.227-1.535a.826.826 0 000-1.164 434.253 434.253 0 01-1.406-1.821.826.826 0 00-1.134.028l-.863.752c-4.24 5.095 8.736 17.352 13.2 13.133l.685-.789a.842.842 0 00.066-1.172z" fill="#000"/></svg>