<svg width="16" height="16" fill="none" xmlns="http://www.w3.org/2000/svg"><g clip-path="url(#clip0_4642_1296)" fill="#6B6F87"><path d="M4.667 0h-2A2.667 2.667 0 000 2.667v2a2.667 2.667 0 002.667 2.666h2a2.667 2.667 0 002.666-2.666v-2A2.667 2.667 0 004.667 0zM6 4.667A1.333 1.333 0 014.667 6h-2a1.333 1.333 0 01-1.334-1.333v-2a1.333 1.333 0 011.334-1.334h2A1.333 1.333 0 016 2.667v2zM13.335 0h-2a2.667 2.667 0 00-2.667 2.667v2a2.667 2.667 0 002.667 2.666h2A2.667 2.667 0 0016 4.667v-2A2.667 2.667 0 0013.335 0zm1.333 4.667A1.333 1.333 0 0113.335 6h-2A1.333 1.333 0 0110 4.667v-2a1.334 1.334 0 011.334-1.334h2a1.333 1.333 0 011.333 1.334v2zM4.667 8.666h-2A2.667 2.667 0 000 11.333v2a2.667 2.667 0 002.667 2.666h2a2.667 2.667 0 002.666-2.666v-2a2.667 2.667 0 00-2.666-2.667zM6 13.333a1.333 1.333 0 01-1.333 1.333h-2a1.334 1.334 0 01-1.334-1.333v-2a1.333 1.333 0 011.334-1.334h2A1.333 1.333 0 016 11.333v2zm7.335-4.667h-2a2.667 2.667 0 00-2.667 2.667v2a2.667 2.667 0 002.667 2.666h2A2.667 2.667 0 0016 13.333v-2a2.667 2.667 0 00-2.666-2.667zm1.333 4.667a1.333 1.333 0 01-1.333 1.333h-2A1.334 1.334 0 0110 13.333v-2a1.333 1.333 0 011.334-1.334h2a1.333 1.333 0 011.333 1.334v2z"/></g><defs><clipPath id="clip0_4642_1296"><path fill="#fff" d="M0 0h16v16H0z"/></clipPath></defs></svg>