<svg width="22" height="22" fill="none" xmlns="http://www.w3.org/2000/svg"><path d="M18.225 3.78A10.214 10.214 0 001.646 15.093c.184.418.226.885.118 1.328l-.62 2.476a1.615 1.615 0 001.959 1.958l2.476-.618a2.061 2.061 0 011.33.118 10.218 10.218 0 005.035.818 10.213 10.213 0 006.28-17.395zm1.351 8.32a8.651 8.651 0 01-7.774 7.51 8.545 8.545 0 01-4.258-.692 3.68 3.68 0 00-1.478-.31 3.6 3.6 0 00-.865.105l-2.529.567.62-2.475a3.652 3.652 0 00-.205-2.343 8.558 8.558 0 01-.69-4.262 8.643 8.643 0 1117.179 1.9z" fill="#000"/><path d="M11 11.786a.786.786 0 100-1.571.786.786 0 000 1.571zm-3.93 0a.786.786 0 100-1.571.786.786 0 000 1.571zm7.86 0a.786.786 0 100-1.571.786.786 0 000 1.571z" fill="#000"/></svg>