<svg width="16" height="16" fill="none" xmlns="http://www.w3.org/2000/svg"><path d="M13.625 1.875h-2.344v-.469C11.281.631 10.651 0 9.875 0h-3.75C5.35 0 4.719.63 4.719 1.406v.469H2.375a1.407 1.407 0 00-.437 2.743l.836 10.092c.06.724.676 1.29 1.401 1.29h7.65c.726 0 1.341-.566 1.401-1.29l.836-10.093c.562-.184.97-.713.97-1.336 0-.775-.632-1.406-1.407-1.406zm-7.969-.469a.47.47 0 01.469-.468h3.75a.47.47 0 01.469.468v.469H5.656v-.469zm6.636 13.227a.472.472 0 01-.467.43h-7.65a.471.471 0 01-.467-.43l-.824-9.945h10.232l-.824 9.945zM13.625 3.75H2.375a.47.47 0 010-.938h11.25a.47.47 0 010 .938z" fill="#000"/><path d="M6.124 13.627l-.469-7.562a.47.47 0 00-.935.058l.468 7.562a.469.469 0 00.936-.058zM8 5.625a.469.469 0 00-.469.469v7.562a.469.469 0 10.938 0V6.094A.469.469 0 008 5.625zm2.841.001a.469.469 0 00-.496.439l-.47 7.562a.469.469 0 00.937.058l.468-7.562a.469.469 0 00-.438-.497z" fill="#000"/></svg>