<svg width="17" height="17" fill="none" xmlns="http://www.w3.org/2000/svg"><path d="M13.458 3.542h-1.487A3.548 3.548 0 008.5.71H3.542A3.546 3.546 0 000 4.251v6.375a2.833 2.833 0 002.168 2.746 2.48 2.48 0 104.888.087h2.891a2.454 2.454 0 00-.029.354 2.48 2.48 0 004.958 0 2.41 2.41 0 00-.043-.441A2.833 2.833 0 0017 10.626V7.084a3.546 3.546 0 00-3.542-3.542zm2.125 3.542v.708h-3.541V4.96h1.416a2.125 2.125 0 012.125 2.125zM1.417 10.626V4.25a2.125 2.125 0 012.125-2.125H8.5a2.125 2.125 0 012.125 2.125v7.791H2.833a1.417 1.417 0 01-1.416-1.416zm4.25 3.187a1.063 1.063 0 01-2.125 0c0-.12.022-.24.066-.354H5.6c.043.113.065.233.066.354zm6.729 1.063a1.063 1.063 0 01-1.063-1.063 1 1 0 01.066-.354h1.994a1 1 0 01.065.354 1.062 1.062 0 01-1.062 1.063zm1.77-2.834h-2.124V9.21h3.541v1.417a1.417 1.417 0 01-1.416 1.416z" fill="#fff"/></svg>