<svg width="22" height="22" fill="none" xmlns="http://www.w3.org/2000/svg"><path d="M20.011 7.143c1.185-1.185 1.722-3.36 1.963-4.975A1.895 1.895 0 0019.828.021c-1.819.304-4.309.836-5.377 2.486-1.986-3.46-4.425-.572-5.125 2.215-2.12-.591-3.053 1.85-3.666 3.667-2.253-.761-3.742 2.876-3.828 4.902a6.99 6.99 0 001.511 4.067L.265 20.435a.917.917 0 001.296 1.296l3.077-3.077a6.992 6.992 0 004.069 1.512c1.987-.072 5.73-1.617 4.923-3.833 1.765-.6 4.317-1.593 3.667-3.666 2.795-.728 5.693-3.132 2.189-5.123a2.81 2.81 0 00.525-.401zM16.148 3.28a7.216 7.216 0 014.017-1.383c-.592 3.444-1.181 4.826-4.557 4.492-.086-1.155.02-2.588.54-3.109zm-3.782-.53c1.035 1.113 1.959 3.528.876 4.715l-1.398 1.392a7.214 7.214 0 00-.846-2.325 5.55 5.55 0 011.368-3.783zM8.699 6.415c1.034 1.114 1.958 3.527.875 4.715l-1.396 1.393a7.22 7.22 0 00-.846-2.325 5.546 5.546 0 011.367-3.783zm-3.666 3.667c1.033 1.112 1.958 3.527.875 4.714l-1.253 1.249a4.535 4.535 0 01.377-5.963zm3.674 8.25a5.025 5.025 0 01-2.755-.991l1.251-1.252c1.192-1.085 3.602-.153 4.718.86a5.666 5.666 0 01-3.214 1.383zm3.666-3.667c-.122 0-.506-.01-.578 0a7.21 7.21 0 00-2.321-.845l1.397-1.396c1.186-1.086 3.6-.153 4.716.86a5.666 5.666 0 01-3.214 1.381zm3.667-3.667c-.123 0-.507-.009-.577 0a7.214 7.214 0 00-2.322-.846l1.397-1.396c1.186-1.084 3.6-.153 4.716.86a5.667 5.667 0 01-3.214 1.382z" fill="#060A1F"/></svg>