<svg width="16" height="15" fill="none" xmlns="http://www.w3.org/2000/svg"><path d="M7.84 14.457a.557.557 0 01-.378-.146L1.955 9.257A4.968 4.968 0 01.482 6.712a4.927 4.927 0 01.23-2.922A4.667 4.667 0 011.92 2.07a4.738 4.738 0 011.848-1.024 4.776 4.776 0 014.071.68 4.776 4.776 0 014.071-.68 4.739 4.739 0 011.848 1.024c.53.476.943 1.064 1.209 1.72.371.93.451 1.947.23 2.922a4.968 4.968 0 01-1.473 2.545L8.216 14.31a.557.557 0 01-.377.146zM5.111 1.948c-.29 0-.579.035-.86.102a3.59 3.59 0 00-1.524.767 3.533 3.533 0 00-.988 1.38 3.837 3.837 0 00-.18 2.276 3.87 3.87 0 001.148 1.982l5.131 4.709 5.132-4.71a3.87 3.87 0 001.147-1.981c.173-.76.11-1.553-.18-2.277a3.572 3.572 0 00-.99-1.375 3.656 3.656 0 00-4.744.014.557.557 0 01-.729 0 3.597 3.597 0 00-2.363-.887z" fill="#060A1F"/></svg>