<svg width="22" height="22" fill="none" xmlns="http://www.w3.org/2000/svg"><path d="M17.195 14.667a4.77 4.77 0 00-3.398 1.407 13.883 13.883 0 01-9.88 4.093H2.86a1.028 1.028 0 01-.727-1.755l2.924-2.92 10.788-2.877a4.588 4.588 0 003.402-4.432v-3.6A4.59 4.59 0 0014.665 0h-3.6a4.588 4.588 0 00-4.428 3.403l-2.88 10.792-2.919 2.921A2.86 2.86 0 002.861 22h1.055a15.7 15.7 0 0011.177-4.63 2.973 2.973 0 015.072 2.102v1.611a.916.916 0 101.833 0v-1.611a4.811 4.811 0 00-4.803-4.805zm-1.822-3.826L7.645 12.9l5.645-5.646 3.076 3.077c-.292.236-.63.41-.993.508zm2.042-6.258v3.6a2.744 2.744 0 01-.06.544l-2.768-2.769 2.553-2.552c.179.367.273.77.275 1.177zm-6.35-2.75h3.6a2.73 2.73 0 011.18.275L13.29 4.663l-2.768-2.77c.178-.037.36-.058.543-.06zM8.407 3.876c.1-.363.272-.702.509-.995l3.079 3.077-5.649 5.65 2.061-7.732z" fill="#060A1F"/></svg>