<svg width="17" height="17" fill="none" xmlns="http://www.w3.org/2000/svg"><path d="M16.374.624a2.101 2.101 0 00-1.983-.566L3.057 2.445a3.538 3.538 0 00-2.02 6.007l1.216 1.216a.709.709 0 01.208.502v2.244a2.1 2.1 0 00.212.91l-.005.005.018.018c.208.418.547.755.965.96l.018.02.005-.006a2.1 2.1 0 00.91.212H6.83c.187 0 .367.074.5.207l1.217 1.216a3.516 3.516 0 003.63.857 3.494 3.494 0 002.368-2.824l2.391-11.358a2.107 2.107 0 00-.56-2.007zM3.256 8.668L2.04 7.452a2.083 2.083 0 01-.512-2.177 2.11 2.11 0 011.771-1.436l11.22-2.362L3.877 12.121V10.17a2.11 2.11 0 00-.62-1.502zm9.897 5.079a2.126 2.126 0 01-3.605 1.213L8.33 13.74a2.109 2.109 0 00-1.501-.622H4.877L15.521 2.48l-2.368 11.268z" fill="#fff"/></svg>