<svg width="17" height="17" fill="none" xmlns="http://www.w3.org/2000/svg"><g clip-path="url(#clip0_4637_346)" fill="#84889C"><path d="M8.497 4.25a2.833 2.833 0 100 5.667 2.833 2.833 0 000-5.667zm0 4.25a1.417 1.417 0 110-2.833 1.417 1.417 0 010 2.833z"/><path d="M8.501 16.997a3.732 3.732 0 01-3.053-1.558c-2.7-3.723-4.07-6.523-4.07-8.32a7.122 7.122 0 1114.245 0c0 1.797-1.369 4.597-4.068 8.32A3.733 3.733 0 018.5 16.997zm0-15.455A5.584 5.584 0 002.924 7.12c0 1.424 1.34 4.056 3.774 7.413a2.229 2.229 0 003.606 0c2.434-3.357 3.775-5.99 3.775-7.413A5.584 5.584 0 008.5 1.542z"/></g><defs><clipPath id="clip0_4637_346"><path fill="#fff" d="M0 0h17v17H0z"/></clipPath></defs></svg>