<svg width="18" height="22" fill="none" xmlns="http://www.w3.org/2000/svg"><path d="M17.348 14.448a7.621 7.621 0 01-1.276-4.218V8.072A7.199 7.199 0 009.472.8a7.071 7.071 0 00-7.543 7.056v2.373a7.56 7.56 0 01-.393 2.404 7.603 7.603 0 01-.887 1.814 2.089 2.089 0 00.31 2.679c.24.222.528.384.842.473 1.126.322 2.273.568 3.432.736a3.905 3.905 0 007.535 0 26.055 26.055 0 003.43-.736 2.048 2.048 0 001.372-1.28 2.09 2.09 0 00-.222-1.872zM9 19.642a2.352 2.352 0 01-1.991-1.108c.662.05 1.326.078 1.991.078s1.329-.03 1.991-.078A2.351 2.351 0 019 19.642zm7.095-3.861a.492.492 0 01-.33.31 24.473 24.473 0 01-13.53 0 .493.493 0 01-.33-.31.513.513 0 01.054-.462A9.208 9.208 0 003.5 10.23V7.857a5.5 5.5 0 015.87-5.488 5.624 5.624 0 015.13 5.703v2.158a9.18 9.18 0 001.54 5.09.513.513 0 01.055.46z" fill="#000"/></svg>