<svg width="19" height="19" fill="none" xmlns="http://www.w3.org/2000/svg"><path d="M8.758 12.84v-2.598H6.16a.742.742 0 110-1.485h2.598V6.16a.742.742 0 011.484 0v2.598h2.598a.742.742 0 110 1.485h-2.598v2.597a.742.742 0 11-1.484 0zm7.46-10.058A9.438 9.438 0 009.5 0a9.438 9.438 0 00-6.718 2.782A9.438 9.438 0 000 9.5c0 2.537.988 4.923 2.782 6.718A9.438 9.438 0 009.5 19a9.484 9.484 0 004.915-1.37.742.742 0 10-.768-1.269A8.001 8.001 0 019.5 17.516c-4.42 0-8.016-3.596-8.016-8.016S5.08 1.484 9.5 1.484 17.516 5.08 17.516 9.5a7.98 7.98 0 01-1.36 4.449.742.742 0 101.235.825A9.464 9.464 0 0019 9.5a9.438 9.438 0 00-2.782-6.718z" fill="#fff"/></svg>