<svg width="20" height="20" fill="none" xmlns="http://www.w3.org/2000/svg"><g clip-path="url(#clip0_4637_282)" fill="#000"><path d="M18.927 3.397a2.494 2.494 0 00-1.919-.897H3.535L3.5 2.208A2.5 2.5 0 001.018 0H.833a.833.833 0 000 1.667h.185a.833.833 0 01.828.735l1.147 9.75a4.167 4.167 0 004.138 3.681h8.702a.834.834 0 000-1.666H7.131A2.5 2.5 0 014.78 12.5h9.933a4.166 4.166 0 004.101-3.428l.654-3.628a2.495 2.495 0 00-.542-2.046zm-1.094 1.751l-.655 3.629a2.5 2.5 0 01-2.464 2.056H4.516l-.784-6.666h13.276a.833.833 0 01.825.981zM5.835 20.001a1.667 1.667 0 100-3.333 1.667 1.667 0 000 3.333zm8.332 0a1.667 1.667 0 100-3.333 1.667 1.667 0 000 3.333z"/></g><defs><clipPath id="clip0_4637_282"><path fill="#fff" d="M0 0h20v20H0z"/></clipPath></defs></svg>