<svg width="19" height="22" fill="none" xmlns="http://www.w3.org/2000/svg"><path d="M9.499 11c2.453 0 4.928-1.702 4.928-5.5 0-1.25-.519-2.45-1.443-3.334A5.045 5.045 0 009.499.786c-1.307 0-2.56.496-3.485 1.38A4.613 4.613 0 004.57 5.499C4.57 9.3 7.046 11 9.5 11zm0-8.643c.871 0 1.707.33 2.323.92.616.59.963 1.389.963 2.222 0 2.46-1.232 3.929-3.286 3.929-2.054 0-3.286-1.468-3.286-3.929 0-.833.346-1.632.963-2.222a3.363 3.363 0 012.323-.92zM9.5 12.57c-5.066 0-9.035 2.093-9.035 4.764 0 2.501 3.208 3.88 9.036 3.88 5.827 0 9.035-1.379 9.035-3.88 0-2.671-3.969-4.764-9.035-4.764zm0 7.072c-4.491 0-7.392-.906-7.392-2.308 0-1.51 3.039-3.192 7.393-3.192 4.353 0 7.392 1.682 7.392 3.192 0 1.402-2.9 2.308-7.392 2.308z" fill="#000"/></svg>