<svg width="17" height="15" fill="none" xmlns="http://www.w3.org/2000/svg"><path d="M15.253 4.038A6.956 6.956 0 0017 2.23a7.279 7.279 0 01-2.008.55A3.466 3.466 0 0016.525.853a6.973 6.973 0 01-2.21.844A3.484 3.484 0 008.286 4.08c0 .276.024.541.082.794a9.867 9.867 0 01-7.184-3.646c-.3.522-.478 1.12-.478 1.762a3.49 3.49 0 001.549 2.896A3.445 3.445 0 01.68 5.457v.038c0 1.694 1.208 3.1 2.792 3.425a3.466 3.466 0 01-.913.115 3.06 3.06 0 01-.66-.06 3.52 3.52 0 003.256 2.429A7.006 7.006 0 01.834 12.89c-.286 0-.56-.013-.834-.048a9.814 9.814 0 005.346 1.564c6.151 0 10.16-5.13 9.907-10.368z" fill="#fff"/></svg>