<svg width="17" height="17" fill="none" xmlns="http://www.w3.org/2000/svg"><g clip-path="url(#clip0_4633_314)" fill="#fff"><path d="M8.503 4.135a4.361 4.361 0 10-.001 8.723 4.361 4.361 0 000-8.723zm0 7.193a2.83 2.83 0 110-5.663 2.83 2.83 0 110 5.663z"/><path d="M12.005.053c-1.564-.073-5.438-.069-7.003 0-1.376.065-2.59.397-3.567 1.375C-.2 3.063.009 5.266.009 8.497c0 3.306-.185 5.458 1.426 7.068 1.64 1.64 3.876 1.426 7.068 1.426 3.275 0 4.406.002 5.564-.446 1.575-.612 2.763-2.019 2.88-4.547.073-1.565.069-5.438 0-7.003C16.806 2.01 15.204.2 12.004.053zm2.476 14.43c-1.072 1.072-2.559.977-5.999.977-3.541 0-4.961.052-5.998-.987-1.193-1.188-.977-3.096-.977-5.988 0-3.913-.402-6.732 3.526-6.933.902-.032 1.168-.042 3.44-.042l.031.021c3.775 0 6.737-.395 6.915 3.532.04.896.049 1.165.049 3.433 0 3.5.066 4.93-.987 5.988z"/><path d="M13.039 4.982a1.02 1.02 0 100-2.039 1.02 1.02 0 000 2.039z"/></g><defs><clipPath id="clip0_4633_314"><path fill="#fff" d="M0 0h17v17H0z"/></clipPath></defs></svg>