<svg width="17" height="17" fill="none" xmlns="http://www.w3.org/2000/svg"><path fill-rule="evenodd" clip-rule="evenodd" d="M.352.352h4.3v4.3h-4.3v-4.3zm1.3 1.3v1.7h1.7v-1.7h-1.7zm4.7-1.3h4.3v4.3h-4.3v-4.3zm1.3 1.3v1.7h1.7v-1.7h-1.7zm4.7-1.3h4.3v4.3h-4.3v-4.3zm1.3 1.3v1.7h1.7v-1.7h-1.7zm-13.3 4.7h4.3v4.3h-4.3v-4.3zm1.3 1.3v1.7h1.7v-1.7h-1.7zm4.7-1.3h4.3v4.3h-4.3v-4.3zm1.3 1.3v1.7h1.7v-1.7h-1.7zm4.7-1.3h4.3v4.3h-4.3v-4.3zm1.3 1.3v1.7h1.7v-1.7h-1.7zm-13.3 4.7h4.3v4.3h-4.3v-4.3zm1.3 1.3v1.7h1.7v-1.7h-1.7zm4.7-1.3h4.3v4.3h-4.3v-4.3zm1.3 1.3v1.7h1.7v-1.7h-1.7zm4.7-1.3h4.3v4.3h-4.3v-4.3zm1.3 1.3v1.7h1.7v-1.7h-1.7z" fill="#84889C"/></svg>