<svg width="25" height="25" fill="none" xmlns="http://www.w3.org/2000/svg"><g clip-path="url(#clip0_4642_298)"><path d="M.39 16.406a.784.784 0 01.782-.781h.586l.195.39a9.886 9.886 0 001.11 4.294 2.726 2.726 0 01-2.672-2.73v-1.173zm5.489-3.446l.61-2.64a1.24 1.24 0 01.324-.59 1.225 1.225 0 011.246-.293l1.625.543-1.422.355a1.454 1.454 0 00-.957.766l-1.258 2.511a.72.72 0 01-.168-.652z" fill="#fff"/><path d="M10.203 10.5l-.047.047-3.59 3.59-.437-.438-.055-.054a.222.222 0 01-.027-.032l1.258-2.511a1.455 1.455 0 01.957-.766l1.422-.356.52.52z" fill="#fff"/><path d="M10.723 11.02l-.356 1.421a1.454 1.454 0 01-.765.957L7.09 14.656a.22.22 0 01-.031-.027l-.493-.492 3.59-3.59.047-.047.52.52z" fill="#fff"/><path d="M11.266 12.645a1.229 1.229 0 01-.293 1.246 1.24 1.24 0 01-.59.324l-2.64.61a.721.721 0 01-.653-.169l2.512-1.258a1.454 1.454 0 00.765-.957l.356-1.421.543 1.625z" fill="#fff"/><path d="M17.578 15.625a1.172 1.172 0 100-2.344 1.172 1.172 0 000 2.344zM19.14 6.25a1.56 1.56 0 11-.003 3.121 1.56 1.56 0 01.004-3.121z" fill="#EDE9E1"/><path d="M12.695 8.008L10.937 6.25l.782-.781 3.515 3.515-.78.782-1.759-1.758z" fill="#BEB4AA"/><path d="M16.406 8.594l-.781.781-.39-.39-3.516-3.516-.39-.39.78-.782 4.297 4.297z" fill="#DA684E"/><path d="M17.578 7.813a1.563 1.563 0 002.668 1.105l.067.066 3.64 3.641c-.12.162-.257.313-.406.45l-3.235 2.94v-1.953a2.735 2.735 0 00-4.472-2.109l-.012-.012 2.14-1.785-1.562-1.562-4.297-4.297-.39-.39 1.758-1.759 4.492 4.493.066.066a1.572 1.572 0 00-.457 1.106z" fill="#918778"/><path d="M24.61 10.676a3.22 3.22 0 01-.657 1.949l-3.64-3.64-.067-.067a1.563 1.563 0 10-2.21-2.211l-.067-.066-4.492-4.493L14.96.664a.925.925 0 011.328.012l7.422 7.758c.577.603.899 1.407.898 2.242zm-2.735 12.116v.093a1.719 1.719 0 01-1.723 1.723H3.516a1.172 1.172 0 01-1.172-1.172v-.39h7.902a4.43 4.43 0 004.11-2.739 9.382 9.382 0 00.488-1.558V14.06a2.715 2.715 0 01.996-2.11 2.734 2.734 0 014.473 2.11v5.86a2.09 2.09 0 00.898 1.515 1.738 1.738 0 01.664 1.356zm-3.125-8.34a1.172 1.172 0 10-2.343 0 1.172 1.172 0 002.343 0z" fill="#DA684E"/><path d="M10.383 14.215a1.24 1.24 0 00.68-.426c1.796.133 3 .383 3 .664 0 .43-2.797.781-6.25.781-3.454 0-6.25-.351-6.25-.78 0-.36 1.933-.661 4.566-.755l.437.438.493.492a.722.722 0 00.684.195l2.64-.61z" fill="#A34235"/><path d="M3.063 20.309a9.886 9.886 0 01-1.11-4.293s3.516.39 5.86.39c2.343 0 5.859-.39 5.859-.39s0 7.03-5.86 7.03a5.118 5.118 0 01-4.75-2.737z" fill="#EDE9E1"/><path d="M7.813 15.234c3.453 0 6.25-.351 6.25-.78v.78l-.391.782s-3.516.39-5.86.39c-2.343 0-5.859-.39-5.859-.39l-.195-.391-.196-.39v-.782c0 .43 2.797.781 6.25.781z" fill="#F58569"/><path d="M7.813 15.234c3.451 0 6.25-.35 6.25-.78 0-.432-2.799-.782-6.25-.782-3.452 0-6.25.35-6.25.781 0 .432 2.798.781 6.25.781z" fill="#DA684E"/><path d="M11.452 12.583l-.543-1.625a.205.205 0 00-.047-.078L9.823 9.841a.207.207 0 00-.078-.047L8.12 9.25a1.418 1.418 0 00-1.446.342 1.434 1.434 0 00-.375.682l-.61 2.64a.899.899 0 00.196.803.374.374 0 00.053.063l.984.985a.228.228 0 00.04.033.915.915 0 00.827.215l2.64-.61a1.435 1.435 0 00.79-.496 1.415 1.415 0 00.233-1.325zM9.93 10.5l-3.36 3.36-.283-.285 1.195-2.386a1.26 1.26 0 01.83-.664l1.315-.328.303.303zm-3.86 2.505l.61-2.641c.043-.187.137-.357.271-.494A1.025 1.025 0 018 9.623l.99.33-.771.194a1.649 1.649 0 00-1.087.869L6.06 13.157a.532.532 0 01.011-.152zm.774 1.133l3.36-3.36.303.304-.33 1.315a1.258 1.258 0 01-.663.83l-2.389 1.195-.28-.284zm4.066-.469a1.041 1.041 0 01-.57.356l-2.641.61a.517.517 0 01-.15.01l2.139-1.072a1.647 1.647 0 00.867-1.084l.195-.77.331.992a1.028 1.028 0 01-.172.958zm7.45-6.639c.001-.22.05-.438.141-.64-.172.078-.33.185-.465.317a1.563 1.563 0 102.211 2.21c.132-.135.239-.292.316-.465a1.556 1.556 0 01-2.203-1.421z" fill="#DED9D0"/><path d="M21.212 21.438a2.089 2.089 0 01-.898-1.516v-5.86a2.71 2.71 0 00-3.31-2.667 2.731 2.731 0 012.138 2.668v5.859a2.09 2.09 0 00.898 1.516 1.739 1.739 0 01.664 1.355v.094a1.718 1.718 0 01-1.722 1.723h1.172a1.72 1.72 0 001.722-1.723v-.094a1.741 1.741 0 00-.664-1.355z" fill="#F58569"/><path d="M3.516 23.438v-.391H2.344v.39a1.172 1.172 0 001.172 1.172h1.171a1.172 1.172 0 01-1.171-1.172zm12.011-3.129a9.377 9.377 0 00.489-1.559v-4.688a2.72 2.72 0 012.159-2.667 2.72 2.72 0 00-2.53.734 2.717 2.717 0 00-.801 1.934v4.687a9.386 9.386 0 01-.489 1.559 4.432 4.432 0 01-4.109 2.738h1.172a4.431 4.431 0 004.11-2.738z" fill="#BD4C3D"/><path d="M1.955 16.016s3.516.39 5.86.39c2.343 0 5.859-.39 5.859-.39l.346-.692c-.36.388-2.997.692-6.206.692-3.208 0-5.846-.304-6.205-.692l.15.301.196.39z" fill="#DA684E"/><path d="M12.697 8.007l-.277-.277-2.354 2.354.553.553 2.354-2.354-.277-.276z" fill="#DED9D0"/><path d="M2.852 19.903a2.322 2.322 0 01-2.07-2.325v-1.172a.39.39 0 01.39-.39h.781l-.195-.391-.195-.39h-.391A1.172 1.172 0 000 16.405v1.172a3.1 3.1 0 003.034 3.12c.03.004.06.005.091.005h.18a6.697 6.697 0 01-.453-.8z" fill="#AFA59B"/><path d="M19.14 6.25a1.563 1.563 0 101.563 1.563 1.572 1.572 0 00-1.562-1.563zm.83 2.391a1.172 1.172 0 11-1.658-1.656 1.172 1.172 0 011.657 1.656z" fill="#853929"/><path d="M11.719 4.688l.39-.391 4.296 4.296-.39.39-4.296-4.296z" fill="#A34235"/><path d="M11.324 5.86l.39-.391 3.516 3.515-.39.39-3.516-3.515z" fill="#918778"/><path d="M17.578 12.89a1.563 1.563 0 100 3.126 1.563 1.563 0 000-3.125zm0 2.735a1.171 1.171 0 110-2.343 1.171 1.171 0 010 2.343z" fill="#BD4C3D"/><path d="M17.578 14.844a1.167 1.167 0 01-1.1-.781 1.173 1.173 0 102.2 0 1.166 1.166 0 01-1.1.78zM3.936 16.205c-1.137-.096-1.983-.19-1.983-.19a9.886 9.886 0 001.11 4.294 5.117 5.117 0 004.75 2.738 5.401 5.401 0 002.933-.781h-.2a6.638 6.638 0 01-6.61-6.06z" fill="#DED9D0"/><path d="M12.072 17.979c-.181.349-.3.727-.352 1.117a.5.5 0 00.066.29.383.383 0 00.343.144.872.872 0 00.599-.33c.152-.194.266-.413.338-.648a4.24 4.24 0 00.213-1.04c.03-.378-.156-1.355-.713-1.046-.206.114-.21.42-.251.632-.055.3-.136.595-.243.88zm-.79 1.623c-.073.18-.197.336-.357.447a5.63 5.63 0 01-.949.557.588.588 0 01-.532.051.136.136 0 01-.064-.07.171.171 0 010-.082 2.85 2.85 0 01.23-.654c.148-.414.334-.814.556-1.194.173-.31.39-.593.644-.84.203-.162.712-.408.88-.069.033.09.038.186.015.279-.074.38-.169.755-.284 1.125a3.455 3.455 0 01-.139.45z" fill="#F7F3EB"/><path d="M2.16 14.785c.999.265 3.152.45 5.652.45s4.653-.185 5.652-.45c-.672-.416-2.944-.723-5.652-.723s-4.98.307-5.652.723z" fill="#A34235"/><path d="M5.938 13.783l.983.983a.224.224 0 00.04.034.915.915 0 00.827.214l2.64-.61a1.435 1.435 0 00.79-.495c.027-.034.047-.07.07-.106a26.89 26.89 0 00-.473-.036 1.04 1.04 0 01-.474.256l-2.641.61a.517.517 0 01-.149.01L9.44 13.7c-.271-.01-.548-.016-.832-.02l-1.48.741-.282-.283.461-.461c-.19 0-.376.005-.561.009l-.175.175-.166-.167c-.178.005-.352.011-.525.018a.373.373 0 00.059.072z" fill="#DED9D0"/><path d="M14.224 4.135l.62-.62-1.367-1.367-1.758 1.758.39.39.977.977 1.138-1.138z" fill="#BEB4AA"/><path d="M14.224 5.241a.781.781 0 010-1.104l-1.138 1.138 3.32 3.32 1.563 1.563-2.14 1.785.01.012a2.734 2.734 0 014.473 2.11v1.952l2.12-1.927a2.324 2.324 0 00-.652-1.293l-7.556-7.556z" fill="#80786A"/><path d="M16.97 1.389l-.68-.713a.944.944 0 00-.673-.285.925.925 0 00-.656.273l-1.484 1.484 1.367 1.368 2.127-2.127z" fill="#F58569"/><path d="M23.955 12.625l-1.004-1.004-.329.308a.777.777 0 00.73 1.324l.195-.18c.15-.135.287-.286.408-.448z" fill="#BEB4AA"/><path d="M19.206 5.62l3.987 4.167a1.179 1.179 0 01.049 1.565l-.29.271 1.003 1.004a3.236 3.236 0 00-.242-4.192l-3.956-4.134a.779.779 0 00-.55 1.319z" fill="#F58569"/></g><defs><clipPath id="clip0_4642_298"><path fill="#fff" d="M0 0h25v25H0z"/></clipPath></defs></svg>