<svg width="25" height="25" fill="none" xmlns="http://www.w3.org/2000/svg"><path d="M21.094 17.969h-1.172l-.781-.39-.059.019a7.845 7.845 0 01-.332-2.25v-3.239c.52-.41.962-.91 1.305-1.476a1.097 1.097 0 00.226-.895.5.5 0 00-.308-.355.48.48 0 00-.426.183 3.713 3.713 0 00-.79 1.696h-.007v-3.5c0-.486.03-.971.09-1.453l.3-2.403h.305a2.348 2.348 0 012.207 1.551l2.785 8.48a3.4 3.4 0 01-.824 3.465l-.566.567h-1.133a7.384 7.384 0 001.113-2.2.393.393 0 00-.636-.421c-.446.437-.907 1.226-.907 2.62h-.39z" fill="#F7F3EB"/><path d="M24.219 18.93c0 .122-.048.24-.133.328a.622.622 0 01-.219.148c-.203.078-.449.04-.601.207a1.27 1.27 0 00-.164.305.755.755 0 01-1.016.305 3.094 3.094 0 00-.547-.34 1.08 1.08 0 00-.797.203 1.09 1.09 0 01-.656.184l-.816-2.118a7.117 7.117 0 01-.188-.554l.059-.02.78.39h3.126c.023.177.332.29.473.364.14.074.293.113.433.195a.507.507 0 01.266.403z" fill="#CFA2A0"/><path d="M20.086 20.27l.273.71a5.17 5.17 0 01.344 1.856v.21a18.653 18.653 0 01-7.031 1.552V4.278a6.332 6.332 0 001.582-.333c.285-.097.557-.231.809-.398.31-.202.564-.483.734-.813l2.344 1.172-.301 2.403c-.06.482-.09.967-.09 1.453v7.586a7.845 7.845 0 00.52 2.804l.816 2.117z" fill="#F7F3EB"/><path d="M16.063 3.547c-.252.167-.524.3-.81.399a6.333 6.333 0 01-1.581.332c-.242.02-.39.02-.39.02l-.602.902-.18-.122c0-.867.309-1.511.39-2.171a.95.95 0 011.22-.477l.343.125c.254-.07.133-.375.36-.516a.442.442 0 01.453.036.5.5 0 00.195.105c.14.02.254-.125.3-.27a4.54 4.54 0 01.18-.468.462.462 0 01.204-.219.423.423 0 01.261-.047.476.476 0 01.39.48v1.079c-.17.33-.422.61-.733.812z" fill="#CFA2A0"/><path d="M16.406 1.172v.004a.423.423 0 00-.261.047.463.463 0 00-.204.218c-.068.153-.128.31-.18.47-.046.144-.16.288-.3.269a.504.504 0 01-.195-.106.443.443 0 00-.454-.035c-.226.14-.105.445-.359.516l-.344-.125a.95.95 0 00-1.218.476c-.082.66-.391 1.305-.391 2.172 0-.867-.309-1.512-.39-2.172a.95.95 0 00-1.22-.476l-.343.125c-.254-.07-.133-.375-.36-.516a.443.443 0 00-.453.035.503.503 0 01-.195.106c-.14.02-.254-.125-.3-.27a4.553 4.553 0 00-.18-.469.462.462 0 00-.204-.218.423.423 0 00-.261-.047v-.004S8.949.39 12.5.39c3.55 0 3.906.78 3.906.78z" fill="#D6CEC1"/><path d="M13.672 4.297v20.3c-.254.008-.516.012-.781.012h-.782c-.265 0-.527-.004-.78-.011V4.278c.241.019.39.019.39.019l.781 1.172.18-.27.601-.902s.149 0 .39-.02v.02z" fill="#CFA2A0"/><path d="M9.746 3.946a3.538 3.538 0 01-.808-.399 2.135 2.135 0 01-.735-.812V1.657a.476.476 0 01.39-.48.423.423 0 01.263.046.46.46 0 01.203.219c.068.153.128.31.18.469.046.144.16.289.3.269a.503.503 0 00.196-.105.443.443 0 01.453-.036c.226.141.105.446.359.516l.344-.125a.95.95 0 011.219.477c.082.66.39 1.304.39 2.171l.18.122-.18.27-.781-1.173s-.149 0-.39-.02a6.332 6.332 0 01-1.583-.331z" fill="#CFA2A0"/><path d="M9.746 3.945c.511.178 1.043.29 1.582.332v20.32a18.653 18.653 0 01-7.031-1.55v-.211c0-.634.116-1.263.344-1.855l.273-.712.816-2.117a7.845 7.845 0 00.52-2.805V7.763c0-.486-.03-.971-.09-1.453l-.3-2.403 2.343-1.172c.17.33.423.61.735.813.25.167.523.3.808.398z" fill="#F7F3EB"/><path d="M3.906 17.969h-.39c0-1.395-.461-2.184-.907-2.621a.393.393 0 00-.636.421c.245.79.621 1.534 1.113 2.2H1.953l-.566-.567a3.398 3.398 0 01-.824-3.465l2.785-8.48a2.348 2.348 0 012.207-1.55h.304l.301 2.402c.06.482.09.967.09 1.453v3.5h-.02a3.713 3.713 0 00-.789-1.696.48.48 0 00-.425-.183.5.5 0 00-.309.355 1.098 1.098 0 00.227.895 5.67 5.67 0 001.316 1.484v3.23c0 .763-.113 1.52-.332 2.25l-.059-.019-.78.39H3.905z" fill="#F7F3EB"/><path d="M5.86 17.578l.058.02a7.109 7.109 0 01-.188.554l-.816 2.117a1.085 1.085 0 01-.656-.183 1.08 1.08 0 00-.797-.203 3.097 3.097 0 00-.547.34.755.755 0 01-1.016-.305 1.273 1.273 0 00-.164-.305c-.152-.168-.398-.129-.601-.207a.623.623 0 01-.219-.148.477.477 0 01-.133-.328.508.508 0 01.266-.403c.14-.082.293-.117.433-.195.141-.078.45-.188.473-.363h3.125l.781-.39z" fill="#CFA2A0"/><path d="M9.125 1.6c.048.116.092.238.113.312.047.144.16.289.301.27a.503.503 0 00.195-.106.443.443 0 01.454-.035c.226.14.105.445.359.515l.344-.125a.95.95 0 011.218.475c.082.66.391 1.305.391 2.172 0-.867.309-1.512.39-2.172a.95.95 0 011.22-.476l.343.125c.254-.07.133-.375.36-.516a.443.443 0 01.453.035.49.49 0 00.195.106c.14.02.254-.125.3-.27a4.56 4.56 0 01.114-.312c-.509-.206-1.488-.426-3.375-.426s-2.866.22-3.375.427z" fill="#8F8C80"/><path d="M22.985 15.9a7.472 7.472 0 01-1.07 2.068h1.132l.566-.567a3.407 3.407 0 00.996-2.406 3.328 3.328 0 00-.085-.706 2.343 2.343 0 01-1.539 1.612zm-3.063-2.229v-2.843c-.318.488-.714.92-1.172 1.28v3.239c0 .762.113 1.52.332 2.25l.059-.02.78.391h1.563a4.127 4.127 0 01.433-1.982 2.343 2.343 0 01-1.995-2.315zm.223-7.792l.835-1.393a2.338 2.338 0 00-1.535-.58h-.304L18.84 6.31c-.06.482-.09.967-.09 1.453v3.5h.008a3.713 3.713 0 01.789-1.696.527.527 0 01.375-.185V6.683c0-.283.077-.561.223-.804zM.476 14.29a3.33 3.33 0 00-.085.705 3.398 3.398 0 00.996 2.406l.566.567h1.133A7.468 7.468 0 012.015 15.9a2.344 2.344 0 01-1.54-1.612zM5.859 3.906h-.305a2.338 2.338 0 00-1.534.58l.835 1.393c.146.243.223.52.223.804V9.38a.54.54 0 01.363.186c.403.489.675 1.073.79 1.696h.019v-3.5c0-.486-.03-.971-.09-1.453l-.301-2.403zM3.082 15.987c.307.614.455 1.295.432 1.982h1.563l.781-.39.059.019c.22-.73.331-1.488.332-2.25v-3.23a5.445 5.445 0 01-1.172-1.274v2.828a2.344 2.344 0 01-1.995 2.315zM17.578 3.125l-.781-.39c-.17.33-.423.61-.735.812-.25.167-.523.3-.808.398a6.332 6.332 0 01-1.582.332v1.11c2.969-.404 3.906-2.262 3.906-2.262zm2.782 17.857l-.274-.71-.816-2.118c-.024-.063-.042-.126-.064-.19a5.468 5.468 0 01-3.734 3.433l-.818.218a.781.781 0 01-.982-.754v3.738a18.65 18.65 0 007.031-1.55v-.212c0-.634-.116-1.263-.344-1.855zm-10.014.632l-.817-.218a5.469 5.469 0 01-3.735-3.431c-.022.063-.039.126-.064.189l-.816 2.117-.273.711a5.175 5.175 0 00-.344 1.855v.211a18.65 18.65 0 007.031 1.551v-3.738a.781.781 0 01-.982.753zm.982-17.337a6.333 6.333 0 01-1.582-.332 3.537 3.537 0 01-.809-.398 2.135 2.135 0 01-.734-.813l-.781.391s.937 1.858 3.906 2.263v-1.11z" fill="#E8E4DC"/><path d="M12.5 21.875a1.172 1.172 0 01-1.172-1.172v3.895c.254.008.516.011.781.011h.782c.265 0 .527-.004.78-.011v-3.895a1.172 1.172 0 01-1.171 1.172zm1.172-17.598c-.242.02-.39.02-.39.02l-.602.902-.18.27-.781-1.172s-.149 0-.39-.02v1.184a1.923 1.923 0 002.343 0V4.277z" fill="#A88280"/><path d="M16.406 1.176a.423.423 0 00-.261.047.462.462 0 00-.204.219 4.54 4.54 0 00-.18.469c-.046.144-.16.289-.3.269a.503.503 0 01-.195-.105.443.443 0 00-.454-.036c-.226.141-.105.446-.359.516l-.344-.125a.95.95 0 00-1.218.477c-.082.66-.391 1.304-.391 2.171l.072.049c.096-.525.262-.98.319-1.44a.95.95 0 011.218-.476l.344.125c.254-.07.133-.375.36-.515a.442.442 0 01.453.035c.056.05.123.085.195.105.14.02.254-.125.3-.27a4.54 4.54 0 01.18-.468.462.462 0 01.204-.219.423.423 0 01.261-.047.476.476 0 01.39.48v-.78a.477.477 0 00-.39-.48z" fill="#F0BCB9"/><path d="M8.594 1.957a.423.423 0 01.262.047c.09.049.161.126.203.219.068.153.128.31.18.469.046.144.16.289.3.27a.503.503 0 00.196-.106.443.443 0 01.453-.035c.226.14.105.445.359.515l.344-.125a.95.95 0 011.219.477c.067.547.287 1.082.362 1.74l.028.041.028-.041c.012-.103.026-.203.044-.301l-.072-.049c0-.867-.309-1.511-.39-2.171a.95.95 0 00-1.22-.477l-.343.125c-.254-.07-.133-.375-.36-.516a.442.442 0 00-.452.036.503.503 0 01-.196.105c-.14.02-.254-.125-.3-.27a4.554 4.554 0 00-.18-.468.462.462 0 00-.203-.219.423.423 0 00-.262-.047.476.476 0 00-.39.48v.782a.476.476 0 01.39-.48z" fill="#F0BCB9"/><path d="M12.5 7.422a.39.39 0 100-.781.39.39 0 000 .78zm0 3.125a.39.39 0 100-.781.39.39 0 000 .78zm0 3.125a.39.39 0 100-.781.39.39 0 000 .78zm0 3.125a.39.39 0 100-.781.39.39 0 000 .78zm0 3.125a.39.39 0 100-.781.39.39 0 000 .78zm0 3.125a.39.39 0 100-.781.39.39 0 000 .78z" fill="#E8E4DC"/><path d="M22.39 15.347a.393.393 0 01.637.422 7.382 7.382 0 01-1.113 2.2h-.43c0-1.395.461-2.185.907-2.622zm-2.109-5.61a1.098 1.098 0 01-.226.894 5.512 5.512 0 01-1.305 1.477v-.848h.008a3.713 3.713 0 01.789-1.695.48.48 0 01.426-.184.5.5 0 01.308.356zM6.25 11.26v.856a5.66 5.66 0 01-1.317-1.485 1.099 1.099 0 01-.227-.894.5.5 0 01.309-.356.48.48 0 01.426.184c.403.488.675 1.072.789 1.695h.02zm-2.734 6.708h-.43a7.382 7.382 0 01-1.113-2.2.393.393 0 01.636-.421c.446.438.907 1.227.907 2.621zm17.578.001c-.77 0-1.034-1.016-1.125-1.709a.564.564 0 111.125-.07v1.779zm-17.188 0c.77 0 1.035-1.016 1.125-1.709a.563.563 0 00-.96-.47.565.565 0 00-.165.4v1.779zM18.75 9.376c.17-.66.374-1.31.612-1.948a.493.493 0 11.806.53L18.75 9.376zM6.238 9.374a18.393 18.393 0 00-.742-2.272.423.423 0 10-.717.433l1.46 1.839zm8.802-5.361c.017.027.04.05.067.066l.038.026c.207.146.867.657.627 1.107-.04.073-.058.063-.07.062-.192 0-.643-.463-1.055-1.084l-.026-.04a.208.208 0 00-.018-.02 6.3 6.3 0 01-.332.069.19.19 0 00.02.16l.03.046c.313.474.907 1.26 1.385 1.26h.02a.457.457 0 00.39-.268c.253-.474.003-1.045-.652-1.538-.07.03-.138.062-.207.087-.07.024-.146.044-.217.067zm.839-.362c.008.01.017.019.027.027l1.172.781a.193.193 0 00.224-.005.195.195 0 00-.008-.32l-1.068-.712c-.054.043-.108.086-.165.125-.057.039-.121.07-.182.104zm-5.496.499c-.347.546-.862 1.124-1.081 1.124-.01 0-.032.008-.07-.061-.24-.451.42-.962.625-1.108l.034-.024a.186.186 0 00.072-.068c-.073-.022-.145-.042-.218-.068-.073-.026-.138-.057-.207-.086-.657.497-.904 1.066-.652 1.538a.46.46 0 00.395.267h.017c.541 0 1.218-.997 1.414-1.305a.194.194 0 00.02-.16 6.3 6.3 0 01-.332-.069.195.195 0 00-.017.02zm-1.61-.728l-1.069.712a.195.195 0 00.217.325l1.171-.78a.196.196 0 00.027-.028c-.06-.035-.124-.065-.182-.104-.057-.04-.109-.082-.164-.125z" fill="#DED9D0"/><path d="M21.09 18.916c.835.135 2.112.2 2.667-.479a2 2 0 01-.238-.105c-.14-.074-.449-.188-.472-.363h-3.125l-.781-.39-.059.019c.055.187.117.37.188.554l.816 2.117c.233.011.463-.053.656-.183.061-.034.125-.068.189-.1l-.256-.511a.39.39 0 01.414-.56zm-16.013-.947H1.952c-.023.175-.332.289-.473.363-.076.04-.156.075-.237.105.554.678 1.831.614 2.668.479a.392.392 0 01.414.559l-.256.512c.064.031.127.065.189.099.193.13.423.194.656.184l.816-2.118c.07-.183.133-.367.188-.554l-.059-.02-.781.39z" fill="#A88280"/><path d="M21.248 9.244a15.93 15.93 0 00-.468 2.183 4.564 4.564 0 00-.01 1.607 1.791 1.791 0 00.88 1.255c.294.125.613.18.932.163.32.01.64-.037.943-.139a.478.478 0 00.214-.136.531.531 0 00.087-.323 4.654 4.654 0 00-.519-1.797 23.059 23.059 0 01-.734-2.222 36.47 36.47 0 00-.342-1.111c-.078-.241-.187-.652-.508-.48-.29.153-.389.706-.475 1zm-17.498 0c.208.716.365 1.445.47 2.183.098.531.102 1.075.01 1.607a1.792 1.792 0 01-.88 1.255c-.295.125-.614.18-.933.163-.32.01-.64-.037-.943-.139a.477.477 0 01-.214-.136.53.53 0 01-.087-.323c.05-.628.226-1.24.519-1.797.282-.728.527-1.47.734-2.222.11-.372.22-.742.342-1.111.079-.241.188-.652.508-.48.29.153.389.706.475 1zm12.076-2.03a7.428 7.428 0 01-.262.105 2.69 2.69 0 00-1.094.563 1.797 1.797 0 00-.33 1.004c-.047.316-.17.63.045.927a.845.845 0 00.24.207c.423.249.895.404 1.383.454.386.05.775.034 1.16.071a.548.548 0 00.596-.351c.073-.274.164-.543.227-.82a6.993 6.993 0 00.174-1.772c-.008-.28-.006-1.015-.482-.958a6.261 6.261 0 00-1.657.57zm-4.604 1.494a1.976 1.976 0 00-.298-.826 2.77 2.77 0 00-.863-.694c-.67-.448-1.368-.85-2.092-1.205a.861.861 0 00-.654-.087.732.732 0 00-.352.386 3.602 3.602 0 00-.302 1.342c-.028.41-.027.823.003 1.234.006.284.073.564.196.82.18.299.46.526.789.643.331.118.678.185 1.03.199.5.035 1.004.03 1.507.024.382-.004 1.033.065 1.114-.416a4.67 4.67 0 00-.079-1.42z" fill="#FFFDFA"/><path d="M14.93 18.756c-.213.19-.376.428-.477.695.29.109.61.106.896-.009a5.072 5.072 0 001.643-1.004c.308-.256.608-.523.899-.799.164-.138.299-.308.394-.501a1.36 1.36 0 00.072-.58 4.721 4.721 0 00-.261-1.367.53.53 0 00-.148-.25c-.535-.43-.955.697-1.094.986a11.441 11.441 0 01-1.924 2.828zm.031-3.066c.057-.047.141-.093.195-.044a.163.163 0 01.043.09 2.05 2.05 0 01-.56 1.706c-.198.265-.485.45-.807.524a.134.134 0 01-.098-.014.148.148 0 01-.047-.105 1.466 1.466 0 01.386-1.219c.254-.35.553-.665.888-.939zm-4.891 3.066c.212.19.376.428.477.695-.29.109-.61.106-.896-.009a5.072 5.072 0 01-1.643-1.004 18.04 18.04 0 01-.899-.799 1.547 1.547 0 01-.394-.501 1.361 1.361 0 01-.073-.58 4.72 4.72 0 01.262-1.367.531.531 0 01.148-.25c.535-.43.955.697 1.094.986a11.44 11.44 0 001.924 2.828zm-.03-3.066c-.057-.047-.141-.093-.197-.044a.163.163 0 00-.043.09 2.05 2.05 0 00.56 1.706c.199.265.485.45.807.524a.134.134 0 00.098-.014.148.148 0 00.047-.105 1.466 1.466 0 00-.386-1.219 5.002 5.002 0 00-.886-.939z" fill="#E8E4DC"/></svg>