<svg width="22" height="22" fill="none" xmlns="http://www.w3.org/2000/svg"><path d="M14.781 21.313H2.062a.344.344 0 100 .687h12.72a.344.344 0 100-.688zm-13.75 0H.688a.344.344 0 100 .687h.343a.344.344 0 000-.688zm20.429-1.742a.667.667 0 010 .945l-.945.946a.67.67 0 11-.945-.946l.945-.945a.67.67 0 01.945 0z" fill="#B82126"/><path d="M11 18.906c0 .815.644 1.84.912 2.238a2.75 2.75 0 01-3.197 0c.268-.399.91-1.423.91-2.238 0-1.024-.676-1.368-.687-2.382a2.755 2.755 0 012.75 0c-.01 1.014-.687 1.358-.687 2.382z" fill="#B2E83A"/><path d="M11.688 16.523a2.75 2.75 0 01.223 4.62c-.268-.398-.911-1.423-.911-2.237 0-1.025.677-1.368.688-2.383zm-2.75 0c.01 1.015.688 1.358.688 2.383 0 .814-.643 1.839-.911 2.237a2.75 2.75 0 01.223-4.62z" fill="#B2E83A"/><path d="M12.829 9.044a6.944 6.944 0 00-.327-2.217 6.733 6.733 0 00-.265-.736A9.078 9.078 0 0010.8 3.743a7.694 7.694 0 00-.453-.491 7.66 7.66 0 00-.495-.454 6.542 6.542 0 00-1.124-.77 5.433 5.433 0 00-1.355-.533A4.874 4.874 0 005.476 1.4c-.57.084-1.12.273-1.623.557a5.094 5.094 0 00-1.897 1.897 4.668 4.668 0 00-.557 1.623 4.874 4.874 0 00.096 1.897 5.4 5.4 0 00.533 1.355c.216.4.474.778.77 1.124a7.806 7.806 0 00.945.949 9.078 9.078 0 002.348 1.436c.24.103.486.191.736.265a6.944 6.944 0 002.217.327c.048 0 .093-.004.134-.007a4.466 4.466 0 001.444-.306 3.35 3.35 0 001.894-1.894 4.62 4.62 0 00.313-1.578zm-1.774-6.5c1.856 1.856 2.89 4.479 2.75 6.737a4.82 4.82 0 01-1.33 3.194 4.811 4.811 0 01-3.194 1.33c-2.258.14-4.881-.894-6.737-2.75C-.33 8.18-.282 4.42 2.069 2.069c2.351-2.351 6.112-2.4 8.986.475zm3.543 13.003l.945-.945 4.966 4.966-.945.945-4.966-4.966z" fill="#B82126"/><path d="M15.548 14.602l-.946.946-.01-.01a4.703 4.703 0 00-2.506-1.3 81.39 81.39 0 00-2.805-.433 4.813 4.813 0 003.194-1.33 4.82 4.82 0 001.33-3.194 80.4 80.4 0 00.433 2.805c.166.949.62 1.824 1.3 2.506l.01.01z" fill="#FAFCFF"/><path d="M10.348 3.253c2.481 2.482 3.378 6.554 1.419 8.513-1.96 1.96-6.032 1.063-8.514-1.418C.772 7.868.821 4.74 2.78 2.78 4.74.821 7.866.772 10.348 3.253z" fill="#E9EDF5"/><path d="M9.28 16.5c0-.046-.01-.09-.027-.133a2.67 2.67 0 00-.64.379c.047.39.17.767.36 1.111.19.317.296.679.307 1.05 0 .65-.521 1.555-.835 2.018.085.079.174.152.268.22.094.065.192.125.293.178.296-.436.961-1.516.961-2.416a2.819 2.819 0 00-.378-1.357 2.152 2.152 0 01-.31-1.05zm2.064 2.407a2.13 2.13 0 01.31-1.05c.189-.344.311-.721.359-1.111a2.741 2.741 0 00-.642-.379.343.343 0 00-.027.133c-.011.37-.118.732-.31 1.05-.239.413-.369.88-.378 1.357 0 .9.666 1.98.963 2.416a2.45 2.45 0 00.56-.398c-.314-.463-.835-1.365-.835-2.018z" fill="#EEF2FA"/><path d="M21.459 19.571a.66.66 0 00-.206-.137.663.663 0 01-.138.74l-.945.945a.667.667 0 01-.74.137.666.666 0 001.084.207l.945-.946a.666.666 0 000-.945zM10.712 2.888A6.495 6.495 0 006.388.836a5.288 5.288 0 00-3.973 1.579A5.278 5.278 0 00.836 6.388a6.495 6.495 0 002.052 4.323c1.585 1.585 3.917 2.647 6.003 2.647a4.455 4.455 0 003.24-1.229c2.305-2.304 1.102-6.72-1.42-9.24zm1.054 8.878c-1.96 1.96-6.032 1.063-8.513-1.419C.77 7.867.82 4.74 2.78 2.78 4.739.82 7.866.77 10.348 3.253c2.482 2.481 3.377 6.554 1.418 8.513z" fill="#9A1C20"/><path d="M10.313 19.593a2.742 2.742 0 01-.776-.116 6.269 6.269 0 01-.822 1.666 2.75 2.75 0 003.197 0 6.272 6.272 0 01-.822-1.666 2.742 2.742 0 01-.777.116z" fill="#9ECF34"/><path d="M11.912 19.082c-.25.177-.528.31-.822.396a6.27 6.27 0 00.822 1.666 2.743 2.743 0 00.948-3.269 2.757 2.757 0 01-.948 1.207zm-3.198 0a2.756 2.756 0 01-.949-1.207 2.743 2.743 0 00.95 3.27 6.269 6.269 0 00.82-1.667 2.716 2.716 0 01-.82-.396z" fill="#9ECF34"/><path d="M8.445 20.923c.085.079.174.152.268.22.094.065.192.125.293.178a6.44 6.44 0 00.863-1.764 2.71 2.71 0 01-.658-.201 5.74 5.74 0 01-.766 1.567zm2.309-1.365a6.44 6.44 0 00.863 1.764c.204-.105.393-.24.56-.398a5.721 5.721 0 01-.765-1.569c-.21.096-.431.164-.658.203z" fill="#DCE1EB"/><path d="M13.897 12.146a5.014 5.014 0 001.398 2.69l.01.01.242-.244-.01-.01a4.703 4.703 0 01-1.3-2.506 80.772 80.772 0 01-.433-2.805 5.776 5.776 0 01-.183 1.14c.099.668.192 1.247.276 1.725zm.939 3.151a5.014 5.014 0 00-2.69-1.397 58.966 58.966 0 00-1.725-.275 5.799 5.799 0 01-1.14.18c.956.135 1.977.286 2.805.434a4.7 4.7 0 012.506 1.299l.01.01.243-.242-.009-.009z" fill="#741213"/><path d="M19.107 19.107l-4.033-4.033-.472.473 4.967 4.967.945-.945-.45-.45a.688.688 0 01-.957-.012z" fill="#9A1C20"/><path d="M12.801 9.442a5.49 5.49 0 00.028-.641l-.585-.584.482-.482c-.023-.122-.052-.244-.08-.367a.169.169 0 00-.082.042l-.562.565-.703-.703.352-.352.35-.351.382.381a.172.172 0 00.122.05c.015 0 .03-.003.044-.008a7.89 7.89 0 00-.17-.532l-.134-.135.058-.059c-.043-.111-.084-.224-.132-.334a.172.172 0 00-.056.036l-.113.113-.703-.702.385-.385a9.276 9.276 0 00-.18-.297.147.147 0 00-.03.02l-.418.419-.351-.352-.352-.35.555-.554a9.311 9.311 0 00-.223-.262l-.006.004-.569.569-.703-.703.568-.567.005-.007a6.993 6.993 0 00-.264-.22l-.552.55-.351-.35-.352-.35.39-.39a.167.167 0 00.028-.042c-.103-.06-.206-.11-.31-.163l-.35.35-.705-.704a.18.18 0 00.01-.022.16.16 0 00.012-.023v-.007a5.16 5.16 0 00-.582-.13.17.17 0 00.044.153l.03.03-.702.703-.753-.753.175-.175a4.68 4.68 0 00-.716.121l.056.054-.704.702-.374-.374c-.103.053-.2.114-.3.175a.172.172 0 00.024.034l.407.407-.703.704-.531-.531c-.042.04-.087.075-.128.115-.04.041-.076.086-.115.128l.531.531-.703.703-.407-.407-.03-.03c-.062.1-.125.202-.179.307l.374.374-.708.706a.172.172 0 00-.057-.024 4.673 4.673 0 00-.114.681l.175-.175.754.753-.351.352-.352.351-.03-.03a.17.17 0 00-.154-.044c.033.197.076.39.13.582h.007a.176.176 0 00.025-.011.172.172 0 00.02-.01l.705.704-.351.35c.052.103.103.206.162.309a.167.167 0 00.043-.029l.39-.389.352.352.35.351-.55.552c.07.089.143.177.22.264l.007-.005.568-.568.702.703-.568.569-.004.006c.085.076.172.15.261.223l.553-.555.352.352.35.35-.417.42a.145.145 0 00-.02.03c.097.062.196.12.296.18l.385-.386.704.703-.113.113a.172.172 0 00-.037.056c.11.048.223.089.335.132l.058-.058.134.134c.177.064.354.12.532.17a.172.172 0 00-.041-.166l-.382-.381.351-.351.352-.352.702.703-.564.563a.169.169 0 00-.042.08c.123.029.246.059.368.08l.48-.48.585.584c.214.004.428-.006.641-.028l.612-.611.39.392c.113-.04.22-.091.329-.14a.155.155 0 00-.032-.049l-.447-.445.705-.704.633.633c.043-.038.09-.07.131-.112.041-.04.074-.088.112-.13l-.633-.635.703-.702.445.446c.014.014.03.025.048.033.05-.108.1-.216.14-.33l-.39-.39.611-.614zM11.76 8.217l-.703.703-.351-.351-.352-.352.352-.351.35-.352.704.703zM5.975 6.92l.35-.351.703.702-.351.352-.351.352-.703-.703.352-.352zm-.594.108l-.352-.351-.351-.352.703-.703.704.703-.351.35-.353.353zm1.189-.703l.35-.352.352-.351.704.703-.352.35-.351.352-.703-.702zm1.297.594l.351-.351.352.35.351.352-.703.705-.703-.703.352-.353zm1.297.594l.702.704-.703.703-.703-.703.704-.704zm.243-.243l.352-.351.351-.35.703.702-.351.352-.352.352-.703-.705zm.109-.594l-.352.351-.351-.351-.352-.351.703-.703.702.703-.35.35zm-1.3-.595l-.703-.702.703-.703.703.703-.703.702zm-.946-.946l-.351-.35-.35-.351.352-.351.351-.352.704.703-.706.702zm-.594-.108l.351.352-.351.351-.35.354-.703-.703.703-.704.35.35zm-1.297.109l-.701-.702.703-.703.704.703-.706.702zm-.243.243l-.701.705-.703-.703.703-.704.7.702zm-.944.946l-.352.352-.351.351-.704-.703.35-.352.353-.351.704.703zm-.109.594l.352-.35.352.35.35.352-.702.704-.703-.703.351-.353zm1.298.594l.704.704-.703.703-.703-.703.702-.704zm.945.947l.35.352.352.351-.351.352-.351.35-.703-.703.703-.702zm.594.109l-.35-.352.35-.351.352-.352.704.703-.703.703-.353-.351zm1.297-.109l.703.703-.702.702-.703-.703.702-.702zm.946.946l.703.703-.351.351-.352.352-.351-.351-.35-.352.701-.703zm.243-.243l.703-.703.351.352.352.351-.351.352-.35.35-.705-.702zm2.353-2.838l-.351.35-.352.352-.703-.702.352-.352.35-.351.704.703zm-1.297-1.298l.35.352-.35.351-.352.354-.703-.703.703-.703.352.35zm-.596-.593l-.703.703-.702-.703.703-.703.702.703zM8.57 3.136l.351.352-.703.703-.703-.703.703-.704.352.352zM7.272 1.84l.704.704-.704.702-.702-.702.702-.704zM7.03 3.49l-.351.35-.352.352-.703-.703.351-.352.352-.352.703.705zm-1.7-1.702l.756.756-.353.35-.351.352-.754-.754.702-.704zm-.945.947l.754.754-.703.703-.754-.754.703-.703zm-.946.946l.754.754-.703.703-.754-.754.703-.703zm-1.65 1.648l.703-.703.755.755-.352.351-.35.353-.756-.756zm.05 1.942l.352-.351.354-.35.702.702-.352.352-.35.352-.705-.705zm1.298 1.298l-.351-.35.35-.352.353-.352.702.703-.702.703-.352-.352zm.594.594l.705-.702.703.703-.703.702-.705-.703zm1.298 1.297l-.35-.35.703-.703.704.703-.351.351-.352.352-.354-.352zm1.65.947l-.352.352-.703-.703.351-.351.352-.352.702.703-.35.35zm.594-.595l-.702-.702.35-.351.352-.352.704.703-.352.351-.352.35zm.243.243l.352-.351.351-.352.352.351.351.352-.703.703-.703-.703zm1.595 1.595l-.648-.647.703-.703.648.648-.703.703zm.946-.945l-.648-.648.352-.351.351-.351.646.646-.701.704zm.945-.947l-.648-.648.352-.351.35-.352.649.647-.703.704zm.946-.947l-.648-.647.703-.703.649.649-.704.701z" fill="#555A66"/></svg>