<svg width="21" height="21" fill="none" xmlns="http://www.w3.org/2000/svg"><path d="M15.42 11.484l.273.735-5.194 7.469-5.194-7.469.272-.735.328-.328.656.328.056-.01c.141.772.584 1.323 1.52 1.323.367.001.732-.074 1.07-.22.098.312.639.548 1.292.548.489 0 1.162-.236 1.29-.548a2.68 2.68 0 001.072.22c.936 0 1.378-.551 1.52-1.322l.055.01.657-.329.328.328z" fill="#FB9881"/><path d="M11.737 8.61a.983.983 0 01.404.82.97.97 0 01-.528.89l-1.113.508-1.112-.508a.97.97 0 01-.528-.89.982.982 0 01.403-.82 2.084 2.084 0 012.474 0z" fill="#42342B"/><path d="M7.547 6.563c.362 0 .656-.441.656-.985s-.294-.984-.656-.984c-.363 0-.656.44-.656.984s.293.984.656.984zm5.906 0c.363 0 .656-.441.656-.985s-.293-.984-.656-.984c-.362 0-.656.44-.656.984s.294.984.656.984zM5.578.984a1.973 1.973 0 011.47-.656h.17l.604.604a3.01 3.01 0 00-.282.164l-1.306.873-1.64 2.953v4.266l-1.64.656L.833 6.21a1.324 1.324 0 01-.178-.66v-.376a1.317 1.317 0 01.43-.972l3.18-2.89L5.578.984zm9.842 0l1.313.329 3.18 2.89a1.32 1.32 0 01.429.972v.377c0 .231-.061.459-.177.66l-2.12 3.632-1.64-.656V4.921l-1.641-2.953-1.306-.873a3.028 3.028 0 00-.282-.164l.604-.604h.17a1.973 1.973 0 011.47.656z" fill="#DB996E"/><path d="M17.063 18.374v2.297H10.5v-.984l5.194-7.468.466 1.257a8.53 8.53 0 01.702 2.693l.2 2.205zM13.178.932c.096.05.19.104.282.164l1.306.873 1.64 2.953v4.266l-1.312 1.968-.656.328-.056-.01c.039-.213.058-.43.056-.646V9.516l-2.363-3.807a1.969 1.969 0 00-3.15 0L6.562 9.516v1.312c-.001.217.017.433.056.647l-.056.01-.656-.329-1.312-1.969V4.923l1.64-2.953 1.306-.873a2.641 2.641 0 011.457-.44h3.006c.407 0 .81.095 1.175.276zm.931 4.646c0-.545-.295-.984-.656-.984-.36 0-.656.44-.656.984 0 .545.295.984.656.984.361 0 .656-.44.656-.984zm-5.906 0c0-.545-.295-.984-.656-.984-.361 0-.656.44-.656.984 0 .545.295.984.656.984.36 0 .656-.44.656-.984z" fill="#FFE2C2"/><path d="M10.5 10.829l1.113-.509a.97.97 0 00.528-.89.983.983 0 00-.404-.82 2.084 2.084 0 00-2.474 0 .982.982 0 00-.403.82.97.97 0 00.528.89l1.112.509zm1.29 1.748a3.058 3.058 0 01-1.29-1.092c-.318.48-.767.859-1.293 1.093a2.665 2.665 0 01-1.07.22c-.935 0-1.377-.552-1.519-1.323a3.413 3.413 0 01-.055-.646V9.516L8.925 5.71a1.969 1.969 0 013.15 0l2.363 3.806v1.313a3.41 3.41 0 01-.056.646c-.141.771-.584 1.322-1.52 1.322a2.682 2.682 0 01-1.072-.22z" fill="#FFE2C2"/><path d="M11.79 12.577c-.129.312-.801.548-1.29.548-.653 0-1.195-.236-1.293-.548a3.028 3.028 0 001.293-1.093c.319.479.765.857 1.29 1.093z" fill="#E9B789"/><path d="M10.5 19.687v.984H3.937v-2.297l.2-2.205a8.53 8.53 0 01.703-2.694l.466-1.256 5.194 7.468z" fill="#FFE2C2"/><path d="M9.263 9.266a2.084 2.084 0 012.474 0c.17.121.293.296.35.496.035-.107.053-.219.054-.332a.983.983 0 00-.404-.82 2.084 2.084 0 00-2.474 0 .982.982 0 00-.403.82c0 .113.019.225.055.332.056-.2.18-.375.348-.496z" fill="#6B5545"/><path d="M10.743 12.455c.167.189.355.357.562.501a.87.87 0 00.484-.379 3.058 3.058 0 01-1.29-1.093c-.318.48-.766.86-1.292 1.093a.742.742 0 00.46.398c.217-.149.415-.323.59-.52a.324.324 0 01.486 0z" fill="#D1A585"/><path d="M2.65 7.219a.633.633 0 00.633-.634v-.968a2.61 2.61 0 01.344-1.299L5.34 1.32a1.88 1.88 0 01.24-.335l-1.313.329-3.18 2.89a1.322 1.322 0 00-.345.525l1.37 2.192a.634.634 0 00.537.299zm14.724-2.901c.227.396.345.844.345 1.3v.967a.633.633 0 001.17.336l1.37-2.191c-.071-.2-.19-.38-.345-.525l-3.18-2.893-1.312-.328c.092.103.172.215.24.335l1.712 3z" fill="#E9B789"/><path d="M6.526.9l-.068.045c-.364.242-.67.563-.894.938L4.498 3.659a3.938 3.938 0 00-.561 2.026v1.302a1.969 1.969 0 01-1.089 1.76l-.414.208.518.89 1.641-.657V4.922l1.64-2.953 1.307-.873.006-.002L7.256.9a.656.656 0 00-.73 0zm10.537 6.087V5.685a3.93 3.93 0 00-.562-2.026l-1.065-1.777a2.952 2.952 0 00-.895-.938L14.473.9a.656.656 0 00-.728 0l-.292.194.005.003 1.308.873 1.64 2.953v4.266l1.64.656.52-.889-.415-.208a1.97 1.97 0 01-1.088-1.76z" fill="#B37D59"/><path d="M7.547 4.266c-.552 0-.984.576-.984 1.312 0 .736.432 1.313.984 1.313s.984-.577.984-1.313-.432-1.312-.984-1.312zm0 2.296c-.363 0-.656-.44-.656-.984s.293-.984.656-.984c.362 0 .656.44.656.984s-.294.984-.656.984zm5.906-2.296c-.552 0-.984.576-.984 1.312 0 .736.432 1.313.984 1.313s.985-.577.985-1.313-.433-1.312-.985-1.312zm0 2.296c-.36 0-.656-.44-.656-.984s.295-.984.656-.984c.361 0 .656.44.656.984s-.293.984-.656.984z" fill="#825943"/><path d="M7.71 6.527c.273 0 .493-.425.493-.949s-.22-.95-.492-.95-.492.426-.492.95.22.95.492.95zm5.556 0c.271 0 .492-.425.492-.949s-.22-.95-.492-.95-.493.426-.493.95.22.95.493.95z" fill="#2F261F"/><path d="M7.526 1.588a3.206 3.206 0 011.305-.276h3.34c.45 0 .894.094 1.305.276.107.05.212.104.314.164l1.287.775-.31-.558-1.306-.873a2.642 2.642 0 00-1.457-.44H8.998a2.641 2.641 0 00-1.457.44l-1.305.873-.31.558 1.287-.775c.101-.06.206-.115.313-.164z" fill="#FFEFDE"/><path d="M4.594 4.922v4.266l1.312 1.968.657.328.055-.01a3.412 3.412 0 01-.056-.646V9.516l.028-.044c-1.127-.295-1.996-2.216-1.996-4.55zm9.817 4.55l.028.044v1.312c.002.217-.017.433-.056.647l.056.01.656-.329 1.312-1.969V4.923c0 2.334-.869 4.255-1.996 4.55z" fill="#F2CFA9"/><path d="M12.14 11.485c-.725 0-1.64-.475-1.64-.656 0 .181-.915.656-1.64.656A2.278 2.278 0 016.585 9.48l-.022.036v1.313c-.002.216.016.433.055.646.142.771.584 1.322 1.52 1.322.368.002.732-.073 1.07-.22a3.029 3.029 0 001.292-1.092c.319.478.766.857 1.29 1.093.338.146.704.22 1.073.22.935 0 1.378-.552 1.519-1.323.039-.213.058-.43.056-.646V9.516l-.023-.036a2.278 2.278 0 01-2.274 2.005z" fill="#F2CFA9"/><path d="M9.263 8.61a2.084 2.084 0 012.474 0 .983.983 0 01.404.82V6.563a1.64 1.64 0 00-3.281 0V9.43a.982.982 0 01.403-.82z" fill="#FFEFDE"/><path d="M11.613 10.32l-1.113.508-1.112-.508a.92.92 0 01-.473-.558 1.083 1.083 0 00-.055.325.97.97 0 00.528.889l1.112.508 1.113-.508a.97.97 0 00.528-.89 1.085 1.085 0 00-.055-.324.918.918 0 01-.473.557z" fill="#E9B789"/><path d="M10.5 20.343l5.465-7.394-.27-.73-5.195 7.468v.656zm0-.656l-5.194-7.468-.27.73 5.464 7.394v-.656z" fill="#F2CFA9"/><path d="M14.915 12.22l.242.77.537-.77-.273-.736-.328-.328-.484.242.074.086.232.735zm-8.831 0l.231-.736.074-.086-.484-.242-.328.328-.272.735.536.771.243-.77z" fill="#FFB4A3"/><path d="M16.863 16.17a8.53 8.53 0 00-.702-2.695l-.466-1.256-.535.77.153.486a9.77 9.77 0 01.597 2.694l.169 2.205v2.297h.984v-2.297l-.2-2.205zm-11.771 0a9.77 9.77 0 01.597-2.695l.153-.486-.536-.77-.466 1.257a8.53 8.53 0 00-.702 2.693l-.2 2.205v2.297h.984v-2.297l.17-2.205z" fill="#FFEFDE"/><path d="M10.502 14.11c2.55 0 4.644-1.161 4.896-2.651l-.303-.303-.656.328-.056-.01c-.14.772-.584 1.323-1.519 1.323a2.68 2.68 0 01-1.073-.22c-.128.312-.8.548-1.29.548-.652 0-1.194-.236-1.292-.548a2.665 2.665 0 01-1.07.22c-.935 0-1.378-.551-1.519-1.322l-.056.01-.656-.329-.303.303c.252 1.49 2.347 2.65 4.897 2.65z" fill="#E68D79"/><path d="M7.454 5.414c.073-.074.09-.176.037-.23-.053-.052-.155-.035-.229.038-.073.074-.09.176-.037.23.053.052.155.035.229-.038zm6.299.046c.053-.053.036-.156-.038-.23-.073-.073-.176-.09-.229-.037-.053.053-.036.156.038.23.073.073.176.09.229.037zm5.38-.429c.21-.21.144-.618-.15-.911-.292-.293-.7-.36-.91-.15-.211.211-.144.619.149.912.293.293.7.36.911.15zm-3.617 13.786c.21-.21.143-.619-.15-.912-.292-.293-.7-.36-.91-.15-.211.211-.144.62.149.912.293.293.7.36.911.15zM2.13 5.423c.106-.105.073-.31-.075-.457-.147-.148-.352-.181-.457-.075-.106.105-.073.31.075.457.147.147.352.181.457.075zm13.122 11.821c.105-.106.072-.311-.075-.458-.148-.147-.352-.18-.458-.075-.106.106-.072.31.075.458.147.147.352.18.457.075zm-3.606-7.879c.106-.106.072-.31-.075-.458-.147-.147-.352-.18-.458-.075-.105.106-.072.31.075.458.147.147.352.18.458.075zm6.349-5.875c.053-.052.036-.155-.037-.228-.074-.074-.176-.09-.23-.038-.052.053-.036.156.038.23.074.073.176.09.229.037zm-7.223 5.907c.053-.053.037-.155-.037-.229-.074-.073-.176-.09-.229-.037-.053.053-.036.155.037.229.074.073.176.09.23.037z" fill="#F6FAFD"/></svg>