<svg width="19" height="19" fill="none" xmlns="http://www.w3.org/2000/svg"><path d="M2.25 9.653l-.469-2.23h.561c0-.196.01-.392.033-.587.003.086.045.947.89 2.072l.01.048a1.797 1.797 0 00-1.025.697zm14.97-2.229l-.47 2.23a1.797 1.797 0 00-1.023-.698l.008-.048c.847-1.125.888-1.986.891-2.072.023.195.034.391.033.588h.56z" fill="#FCFCFC"/><path d="M1.781 7.422h-.297V6.75a3.34 3.34 0 01.62-1.962l1.218-1.68C4.616 1.326 6.532.296 8.553.296h1.894c2.022 0 3.937 1.03 5.231 2.811l1.217 1.68a3.34 3.34 0 01.62 1.963v.67h-.857c0-.196-.01-.392-.033-.587v-.006a3.058 3.058 0 00-.484-1.44l-.718-1.015c-1.295-1.829-3.236-2.889-5.285-2.889H8.862c-2.049 0-3.99 1.06-5.285 2.889L2.86 5.388c-.28.432-.446.927-.484 1.44v.006a4.911 4.911 0 00-.033.588h-.56z" fill="#FFBC36"/><path d="M14.318 8.905a.88.88 0 01.229.594v8.313a.894.894 0 01-.89.89.89.89 0 01-.891-.89V9.499a.89.89 0 011.552-.594zm-9.636 9.5a.88.88 0 01-.229-.593V9.499a.88.88 0 01.261-.63.89.89 0 011.52.63v8.313a.89.89 0 01-1.552.593z" fill="#474747"/><path d="M18.612 14.27l-1.588-4.063a1.94 1.94 0 00-.276-.556 1.797 1.797 0 00-1.024-.697 1.758 1.758 0 00-.398-.048h-1.01a.88.88 0 01.229.594v8.313a.88.88 0 01-.229.593h1.779c.706 0 1.377-.018 1.831-.593l.223-.285a2.63 2.63 0 00.552-1.621v-.95c0-.232-.03-.463-.089-.686zM4.453 15.438V9.5a.88.88 0 01.229-.594h-1.01c-.134 0-.267.017-.397.048a1.797 1.797 0 00-1.025.697c-.12.17-.214.357-.276.556L.386 14.27c-.06.223-.09.454-.09.686v.95a2.635 2.635 0 00.553 1.62l.223.285c.454.576 1.125.594 1.831.594h1.779a.88.88 0 01-.229-.593v-2.375z" fill="#FFE347"/><path d="M4.682 8.908a.89.89 0 01.365-.243v8.258a.883.883 0 001.187.836v.055a.89.89 0 01-1.78 0V9.5a.88.88 0 01.228-.593z" fill="#2C2C2C"/><path d="M15.139 8.906h-.823a.88.88 0 01.229.594v8.313a.88.88 0 01-.229.593h1.779c.706 0 1.377-.018 1.831-.593l.223-.285a2.58 2.58 0 00.436-.85c-2.015-1.189-3.446-4.217-3.446-7.772z" fill="#FFBB05"/><path d="M17.926 16.624c-.454.576-1.125.594-1.831.594h-1.55v.594a.88.88 0 01-.229.594h1.779c.706 0 1.377-.018 1.831-.594l.223-.285c.197-.254.345-.541.436-.849-.158-.095-.31-.2-.456-.313l-.203.26z" fill="#FF9500"/><path d="M16.33 12.766h-.595a.297.297 0 00-.292.248l-.294 1.758a.89.89 0 101.477.665v-2.374a.297.297 0 00-.297-.297z" fill="#F08C00"/><path d="M15.734 14.844a.594.594 0 110 1.188.594.594 0 010-1.188z" fill="#9C9C9C"/><path d="M16.328 13.063v2.374a.595.595 0 00-.876-.522l-.014-.071.296-1.781h.594z" fill="#383838"/><path d="M17.218 7.423h-.303l-.412 1.957-.713 3.387-.05.236a.313.313 0 000 .06h.587v.03l.067-.314.572-2.72.543-2.576a.298.298 0 000-.061l-.291.001z" fill="#383838"/><path d="M16.657 7.422a5.025 5.025 0 00-.032-.588v-.006a4.402 4.402 0 00-.044-.285.289.289 0 00-.253.281c-.003.086-.05.866-.831 1.904a.291.291 0 00-.055.186c.095.005.19.019.283.04.094.023.185.054.273.093a4.938 4.938 0 00.823-1.625h-.164z" fill="#2C2C2C"/><path d="M15.734 15.734a.594.594 0 01-.572-.445.581.581 0 00.152.568.594.594 0 00.993-.568.594.594 0 01-.573.445z" fill="#595959"/><path d="M3.86 8.906h.823a.88.88 0 00-.229.594v8.313c0 .219.081.43.229.593H2.905c-.707 0-1.378-.018-1.832-.593l-.223-.285a2.584 2.584 0 01-.436-.85C2.43 15.49 3.86 12.462 3.86 8.907z" fill="#FFBB05"/><path d="M1.073 16.624c.454.576 1.125.594 1.832.594h1.55v.594c-.001.22.08.431.228.594H2.905c-.707 0-1.378-.018-1.832-.594l-.223-.285a2.584 2.584 0 01-.436-.849c.158-.095.31-.2.456-.313l.203.26z" fill="#FF9500"/><path d="M2.672 12.766h.594a.297.297 0 01.292.248l.294 1.758a.889.889 0 11-1.477.665v-2.374a.297.297 0 01.297-.297z" fill="#F08C00"/><path d="M3.266 14.844a.594.594 0 100 1.188.594.594 0 000-1.188z" fill="#9C9C9C"/><path d="M2.672 13.063v2.374a.595.595 0 01.876-.522l.014-.071-.296-1.781h-.594z" fill="#383838"/><path d="M1.78 7.422h.304l.412 1.957.713 3.387.05.235a.3.3 0 010 .062H2.67v.03l-.066-.315-.572-2.718-.543-2.577a.3.3 0 010-.061h.29z" fill="#383838"/><path d="M2.344 7.422c0-.196.01-.393.033-.588v-.006c.01-.096.027-.19.043-.285a.29.29 0 01.253.281c.003.086.051.866.832 1.904.039.054.058.12.055.186-.096.005-.19.019-.284.04a1.703 1.703 0 00-.273.093 4.937 4.937 0 01-.823-1.625h.164z" fill="#2C2C2C"/><path d="M3.266 15.734a.594.594 0 00.572-.445.577.577 0 01-.153.568.594.594 0 01-.992-.568.594.594 0 00.573.445z" fill="#595959"/><path d="M14.318 8.908a.89.89 0 00-.365-.243v8.258a.883.883 0 01-1.187.836v.055a.89.89 0 001.78 0V9.5a.88.88 0 00-.228-.593z" fill="#2C2C2C"/><path d="M16.947 7.125a3.668 3.668 0 00-.563-1.907l-.72-1.018c-1.355-1.914-3.37-3.013-5.526-3.013H8.86c-2.156 0-4.17 1.099-5.526 3.013l-.719 1.018a3.668 3.668 0 00-.563 1.907h-.569v.297h.858c0-.197.01-.393.033-.588v-.006a3.058 3.058 0 01.484-1.44l.718-1.015c1.295-1.829 3.236-2.889 5.285-2.889h1.276c2.049 0 3.99 1.06 5.285 2.889l.718 1.015c.28.432.446.927.484 1.44v.006c.023.195.034.391.033.588h.858v-.297h-.57z" fill="#FF9500"/><path d="M1.74 14.499c.265-.266.325-.635.135-.825-.19-.19-.56-.13-.825.135-.265.265-.325.634-.135.825.19.19.56.13.825-.135zm-.469 1.021c.133-.134.163-.32.068-.415-.096-.095-.281-.065-.414.068-.134.133-.164.319-.068.414.095.096.28.066.414-.068zm16.924-.874c.19-.19.13-.56-.135-.824-.265-.265-.634-.326-.825-.135-.19.19-.13.56.136.824.265.265.634.326.824.135zm.058.952c.096-.096.065-.281-.068-.414-.133-.133-.319-.164-.414-.068-.096.095-.065.281.068.414.133.133.318.164.414.068z" fill="#F6FAFD"/></svg>