<svg width="24" height="24" fill="none" xmlns="http://www.w3.org/2000/svg"><path d="M12.75 2.231v4.144h-1.5V2.63a.75.75 0 00-1.043-.69L4.125 4.5V3L10.14.536a1.854 1.854 0 012.61 1.695z" fill="#CDD6E0"/><path d="M11.25 8.625h1.5v4.125h-1.5V8.625z" fill="#BAC3CC"/><path d="M13.875 6.375v2.25h-3.75v-2.25h3.75z" fill="#0867D3"/><path d="M11.25 12.75h1.5v7.875h-1.5V12.75z" fill="#0C428C"/><path d="M13.875 8.625H12.75v4.125h3v9a.752.752 0 01-.75.75H9a.752.752 0 01-.75-.75v-9h3V8.625h-1.125a3 3 0 00-3 3v10.5a1.5 1.5 0 001.5 1.5h6.75a1.5 1.5 0 001.5-1.5v-10.5a3 3 0 00-3-3z" fill="#E9EFFB"/><path d="M15.75 12.75v9a.753.753 0 01-.75.75H9a.752.752 0 01-.75-.75v-9h3v7.875h1.5V12.75h3z" fill="#4795F7"/><path d="M11.25 6.375v.75a.75.75 0 00.75.75h1.875v.75h-3.75v-2.25h1.125z" fill="#0C428C"/><path d="M12 4.875V2.65a1.5 1.5 0 00-2.091-1.378L4.125 3.75v.75l6.082-2.56a.75.75 0 011.043.69v3.745h1.5v-.75a.75.75 0 01-.75-.75z" fill="#BAC3CC"/><path d="M12.75 8.625h-1.5v4.125H12v-3a.375.375 0 01.375-.375h.375v-.75z" fill="#98A0A8"/><path d="M12.75 3A.375.375 0 0012 3v1.5a.375.375 0 00.75 0V3z" fill="#DBE5F0"/><path d="M15.75 21.697v.053a.752.752 0 01-.75.75H9a.752.752 0 01-.75-.75v-9h1.125v-1.125c0-1.397.582-2.568 1.875-2.902v-.098h-1.125a3 3 0 00-3 3v10.5a1.5 1.5 0 001.5 1.5h6.75a1.5 1.5 0 001.5-1.5V20.25a1.497 1.497 0 01-1.125 1.447z" fill="#CDD6E0"/><path d="M12 21.75a2.625 2.625 0 01-2.625-2.625V12.75H8.25v9a.752.752 0 00.75.75h6a.752.752 0 00.75-.75v-.053a1.49 1.49 0 01-.375.053H12z" fill="#0948A1"/><path d="M14.063 12.75h1.124v9h-1.124v-9z" fill="#6EAEFF"/><path d="M14.625 9.75a.562.562 0 00-.563.563v2.437h1.126v-2.438a.562.562 0 00-.563-.562zm2.25 3.938a.562.562 0 10-1.125 0v6.374a.562.562 0 101.125 0v-6.375z" fill="#F5FAFF"/><path d="M8.25 13.688a.562.562 0 10-1.125 0v6.374a.562.562 0 101.125 0v-6.375z" fill="#E9EFFB"/></svg>