<svg width="21" height="21" fill="none" xmlns="http://www.w3.org/2000/svg"><path d="M8.86 1.64H4.265a.656.656 0 00-.657.657v.656c0 .363.294.656.657.656h4.593a.656.656 0 00.657-.656v-.656a.656.656 0 00-.657-.656z" fill="#82ADCF"/><path d="M17.063 3.281a.656.656 0 100-1.312.656.656 0 000 1.312z" fill="#3588A3"/><path d="M11.813 3.281a.656.656 0 100-1.312.656.656 0 000 1.312zm2.625 0a.656.656 0 100-1.312.656.656 0 000 1.312z" fill="#D3989B"/><path d="M19.031 2.297v2.625H1.97V2.297A1.969 1.969 0 013.937.328h13.126a1.969 1.969 0 011.968 1.969zm-1.312.328a.656.656 0 10-1.313 0 .656.656 0 001.313 0zm-2.625 0a.656.656 0 10-1.313 0 .656.656 0 001.313 0zm-2.625 0a.656.656 0 10-1.313 0 .656.656 0 001.313 0zm-2.953.328v-.656a.658.658 0 00-.657-.656H4.266a.658.658 0 00-.657.656v.656a.658.658 0 00.657.656h4.593a.658.658 0 00.657-.656z" fill="#E3DCDD"/><path d="M14.989 13.781a4.597 4.597 0 10-4.489 3.61 4.64 4.64 0 004.489-3.61zM10.5 6.891a5.906 5.906 0 110 11.812 5.906 5.906 0 010-11.812z" fill="#3588A3"/><path d="M19.031 4.922v13.781a1.969 1.969 0 01-1.968 1.969H3.938a1.968 1.968 0 01-1.97-1.969V4.922h17.063zm-2.625 7.875a5.906 5.906 0 10-11.812 0 5.906 5.906 0 0011.812 0z" fill="#EDEDED"/><path d="M15.094 12.797c0 .33-.035.66-.105.984h-.552c-.984 0-1.312-.984-1.312-.984s-.328.984-1.313.984c-.984 0-1.312-.984-1.312-.984s-.328.984-1.313.984c-.984 0-1.312-.984-1.312-.984s-.328.984-1.313.984h-.55a4.594 4.594 0 119.082-.984z" fill="#fff"/><path d="M14.438 13.781h.551a4.595 4.595 0 01-8.977 0h.551c.984 0 1.312-.984 1.312-.984s.329.984 1.313.984 1.313-.984 1.313-.984.328.984 1.312.984 1.313-.984 1.313-.984.328.984 1.312.984z" fill="#B2D5F0"/><path d="M17.063 20.016H3.938a1.969 1.969 0 01-1.97-1.97v.657a1.969 1.969 0 001.97 1.969h13.124a1.968 1.968 0 001.97-1.969v-.656a1.969 1.969 0 01-1.97 1.969z" fill="#D9D2D3"/><path d="M3.938.984h13.124a1.969 1.969 0 011.97 1.97v-.657a1.969 1.969 0 00-1.97-1.969H3.938A1.969 1.969 0 001.97 2.297v.656A1.969 1.969 0 013.937.984z" fill="#EDEDED"/><path d="M10.5 18.703a5.904 5.904 0 01-5.881-5.414 5.978 5.978 0 00-.025.492 5.906 5.906 0 1011.812 0 5.96 5.96 0 00-.025-.492 5.904 5.904 0 01-5.881 5.414z" fill="#D9D2D3"/><path d="M10.501 18.703a5.851 5.851 0 01-4.288-1.846.656.656 0 01.951-.902 4.594 4.594 0 006.672 0 .656.656 0 01.951.902 5.854 5.854 0 01-4.286 1.846z" fill="#2E748A"/><path d="M14.311 9.844a.653.653 0 01-.476-.205 4.594 4.594 0 00-6.673 0 .656.656 0 11-.951-.903 5.906 5.906 0 018.578 0 .657.657 0 01-.478 1.108z" fill="#49B0D1"/><path d="M10.5 17.39a4.585 4.585 0 114.489-3.609 4.6 4.6 0 01-4.489 3.61zm0-9.515a4.922 4.922 0 100 9.844 4.922 4.922 0 000-9.844z" fill="#255D6E"/><path d="M7.873 12.796s.328.985 1.313.985l4.389-4.389a4.57 4.57 0 00-2.466-1.144l-5.16 5.16c.017.126.033.25.06.373h.552c.984 0 1.312-.985 1.312-.985z" fill="#EDEDED"/><path d="M10.5 12.797s.328.984 1.313.984c.984 0 1.312-.984 1.312-.984.085.224.217.428.386.599l1.494-1.495a4.58 4.58 0 00-1.429-2.508L9.187 13.78c.985 0 1.313-.984 1.313-.984zm0-4.594a4.568 4.568 0 00-4.549 5.206l5.16-5.16a4.633 4.633 0 00-.61-.046z" fill="#fff"/><path d="M13.512 13.397a1.278 1.278 0 00.927.385h.55c.135-.619.14-1.259.017-1.88l-1.494 1.495z" fill="#E3E3E3"/><path d="M13.51 13.396l-3.905 3.905a4.582 4.582 0 005.383-3.519h-.55a1.276 1.276 0 01-.928-.386z" fill="#8DBCE0"/><path d="M13.125 12.797s-.328.984-1.313.984c-.984 0-1.312-.984-1.312-.984s-.328.984-1.312.984l-2.094 2.094A4.583 4.583 0 009.606 17.3l3.905-3.904a1.72 1.72 0 01-.386-.6z" fill="#C9E7FF"/><path d="M7.875 12.797s-.328.984-1.312.984h-.551a4.59 4.59 0 001.083 2.094l2.093-2.094c-.984 0-1.313-.984-1.313-.984z" fill="#B2D5F0"/><path d="M10.5 8.203a4.6 4.6 0 00-4.489 5.578h.342a4.265 4.265 0 118.294 0h.342A4.6 4.6 0 0010.5 8.203z" fill="#C7C0C1"/><path d="M10.5 17.063a4.265 4.265 0 01-4.146-3.282h-.342a4.595 4.595 0 008.977 0h-.342a4.266 4.266 0 01-4.146 3.281z" fill="#6F92AB"/><path d="M17.063 2.953a.656.656 0 01-.633-.492.656.656 0 101.266 0 .657.657 0 01-.633.492z" fill="#255D6E"/><path d="M17.063 1.64a.984.984 0 100 1.97.984.984 0 000-1.97zm0 1.641a.656.656 0 110-1.312.656.656 0 010 1.312z" fill="#C7C0C1"/><path d="M14.438 2.953a.656.656 0 01-.633-.492.656.656 0 101.266 0 .657.657 0 01-.634.492z" fill="#C28C8E"/><path d="M14.438 1.64a.984.984 0 100 1.97.984.984 0 000-1.97zm0 1.641a.656.656 0 110-1.312.656.656 0 010 1.312z" fill="#C7C0C1"/><path d="M11.813 2.953a.656.656 0 01-.633-.492.656.656 0 101.266 0 .657.657 0 01-.634.492z" fill="#C28C8E"/><path d="M11.813 1.64a.984.984 0 100 1.97.984.984 0 000-1.97zm0 1.641a.656.656 0 110-1.312.656.656 0 010 1.312z" fill="#C7C0C1"/><path d="M4.266 1.64a.658.658 0 00-.657.657v.656a.656.656 0 00.388.597l1.91-1.91H4.265z" fill="#82ADCF"/><path d="M5.905 1.64L3.996 3.55a.64.64 0 00.269.06h1.312l1.97-1.97H5.904z" fill="#8DBCE0"/><path d="M8.86 1.64H7.546L5.578 3.61h1.64l1.91-1.91a.648.648 0 00-.269-.06z" fill="#B2D5F0"/><path d="M9.128 1.7l-1.91 1.909H8.86a.658.658 0 00.657-.657v-.656a.656.656 0 00-.388-.597z" fill="#8DBCE0"/><path d="M8.86 1.313H4.265a.984.984 0 00-.985.984v.656a.984.984 0 00.985.985h4.593a.984.984 0 00.985-.985v-.656a.984.984 0 00-.985-.985zm.656 1.64a.658.658 0 01-.657.656H4.266a.658.658 0 01-.657-.656v-.656a.658.658 0 01.657-.656h4.593a.658.658 0 01.657.656v.656z" fill="#C7C0C1"/><path d="M16.57 19.523h-.328a.492.492 0 110-.984h.328a.82.82 0 00.82-.82v-.657a.492.492 0 01.985 0v.657a1.806 1.806 0 01-1.805 1.804zm1.805-4.265a.492.492 0 00-.984 0v.328a.492.492 0 10.984 0v-.328z" fill="#fff"/><path d="M1.969 4.266H19.03v.656H1.97v-.656z" fill="#D9D2D3"/><path d="M1.969 4.922H19.03v.656H1.97v-.656z" fill="#F5F5F5"/></svg>