<svg width="22" height="22" fill="none" xmlns="http://www.w3.org/2000/svg"><path d="M7.793.459h6.417v.458a.92.92 0 01-.917.917H8.71a.92.92 0 01-.917-.917V.46z" fill="#333940"/><path d="M17.875 2.292V19.71a1.834 1.834 0 01-1.833 1.833H5.958a1.833 1.833 0 01-1.833-1.833V2.292A1.833 1.833 0 015.958.46h1.834v.458a.92.92 0 00.916.917h4.584a.92.92 0 00.916-.917V.46h1.834a1.833 1.833 0 011.833 1.833z" fill="#9576F0"/><path d="M17.874 15.605V2.292A1.833 1.833 0 0016.04.46h-1.833v.458a.92.92 0 01-.917.917H8.707A.92.92 0 017.79.917V.46H5.957a15.575 15.575 0 0011.917 15.146z" fill="#B785F8"/><path d="M16.042.459h-1.834v.458h1.834a1.375 1.375 0 011.375 1.375V19.71a1.375 1.375 0 01-1.375 1.375H5.958a1.375 1.375 0 01-1.375-1.375V2.292A1.375 1.375 0 015.958.917h1.834V.46H5.958a1.833 1.833 0 00-1.833 1.833V19.71a1.834 1.834 0 001.833 1.833h10.084a1.833 1.833 0 001.833-1.833V2.292A1.833 1.833 0 0016.042.46z" fill="#333940"/><path d="M13.293 1.376H8.71a.92.92 0 01-.917-.917v.458a.92.92 0 00.917.917h4.583a.92.92 0 00.917-.917V.46a.92.92 0 01-.917.917zM6.73 21.313a.23.23 0 00.23.23h6.875a.23.23 0 100-.459H6.96a.23.23 0 00-.23.23zm7.793 0a.23.23 0 00.23.23h.458a.23.23 0 100-.459h-.458a.229.229 0 00-.23.23z" fill="#23272B"/></svg>